<svg width="501" height="125" viewBox="0 0 501 125" fill="none" xmlns="http://www.w3.org/2000/svg">
<circle cx="46" cy="56.5" r="46" fill="url(#paint0_linear)"/>
<path d="M48.416 84.5L37.792 66.26H30.752V84.5H24.928V39.892H39.328C42.6987 39.892 45.536 40.468 47.84 41.62C50.1867 42.772 51.936 44.3293 53.088 46.292C54.24 48.2547 54.816 50.4947 54.816 53.012C54.816 56.084 53.92 58.7933 52.128 61.14C50.3787 63.4867 47.7333 65.044 44.192 65.812L55.392 84.5H48.416ZM30.752 61.588H39.328C42.4853 61.588 44.8533 60.82 46.432 59.284C48.0107 57.7053 48.8 55.6147 48.8 53.012C48.8 50.3667 48.0107 48.3187 46.432 46.868C44.896 45.4173 42.528 44.692 39.328 44.692H30.752V61.588ZM95.8655 65.62C95.8655 66.7293 95.8015 67.9027 95.6735 69.14H67.6415C67.8548 72.596 69.0282 75.3053 71.1615 77.268C73.3375 79.188 75.9615 80.148 79.0335 80.148C81.5508 80.148 83.6415 79.572 85.3055 78.42C87.0122 77.2253 88.2068 75.6467 88.8895 73.684H95.1615C94.2228 77.0547 92.3455 79.8067 89.5295 81.94C86.7135 84.0307 83.2148 85.076 79.0335 85.076C75.7055 85.076 72.7188 84.3293 70.0735 82.836C67.4708 81.3427 65.4228 79.2307 63.9295 76.5C62.4362 73.7267 61.6895 70.5267 61.6895 66.9C61.6895 63.2733 62.4148 60.0947 63.8655 57.364C65.3162 54.6333 67.3428 52.5427 69.9455 51.092C72.5908 49.5987 75.6202 48.852 79.0335 48.852C82.3615 48.852 85.3055 49.5773 87.8655 51.028C90.4255 52.4787 92.3882 54.484 93.7535 57.044C95.1615 59.5613 95.8655 62.42 95.8655 65.62ZM89.8495 64.404C89.8495 62.1853 89.3588 60.2867 88.3775 58.708C87.3962 57.0867 86.0522 55.8707 84.3455 55.06C82.6815 54.2067 80.8255 53.78 78.7775 53.78C75.8335 53.78 73.3162 54.7187 71.2255 56.596C69.1775 58.4733 68.0042 61.076 67.7055 64.404H89.8495ZM116.609 79.124L127.489 49.428H133.697L119.937 84.5H113.153L99.393 49.428H105.665L116.609 79.124ZM142.436 43.732C141.327 43.732 140.388 43.348 139.62 42.58C138.852 41.812 138.468 40.8733 138.468 39.764C138.468 38.6547 138.852 37.716 139.62 36.948C140.388 36.18 141.327 35.796 142.436 35.796C143.503 35.796 144.399 36.18 145.124 36.948C145.892 37.716 146.276 38.6547 146.276 39.764C146.276 40.8733 145.892 41.812 145.124 42.58C144.399 43.348 143.503 43.732 142.436 43.732ZM145.252 49.428V84.5H139.428V49.428H145.252ZM187.178 65.62C187.178 66.7293 187.114 67.9027 186.986 69.14H158.954C159.167 72.596 160.341 75.3053 162.474 77.268C164.65 79.188 167.274 80.148 170.346 80.148C172.863 80.148 174.954 79.572 176.618 78.42C178.325 77.2253 179.519 75.6467 180.202 73.684H186.474C185.535 77.0547 183.658 79.8067 180.842 81.94C178.026 84.0307 174.527 85.076 170.346 85.076C167.018 85.076 164.031 84.3293 161.386 82.836C158.783 81.3427 156.735 79.2307 155.242 76.5C153.749 73.7267 153.002 70.5267 153.002 66.9C153.002 63.2733 153.727 60.0947 155.178 57.364C156.629 54.6333 158.655 52.5427 161.258 51.092C163.903 49.5987 166.933 48.852 170.346 48.852C173.674 48.852 176.618 49.5773 179.178 51.028C181.738 52.4787 183.701 54.484 185.066 57.044C186.474 59.5613 187.178 62.42 187.178 65.62ZM181.162 64.404C181.162 62.1853 180.671 60.2867 179.69 58.708C178.709 57.0867 177.365 55.8707 175.658 55.06C173.994 54.2067 172.138 53.78 170.09 53.78C167.146 53.78 164.629 54.7187 162.538 56.596C160.49 58.4733 159.317 61.076 159.018 64.404H181.162ZM241.586 49.428L230.642 84.5H224.626L216.178 56.66L207.73 84.5H201.714L190.706 49.428H196.658L204.722 78.868L213.426 49.428H219.378L227.89 78.932L235.826 49.428H241.586ZM253.19 44.628V59.54H269.446V64.34H253.19V79.7H271.366V84.5H247.366V39.828H271.366V44.628H253.19ZM298.482 84.5L290.162 71.444L282.162 84.5H276.082L287.41 67.092L276.082 49.428H282.674L290.994 62.42L298.93 49.428H305.01L293.746 66.772L305.074 84.5H298.482ZM316.627 55.892C317.779 53.8867 319.486 52.2227 321.747 50.9C324.051 49.5347 326.718 48.852 329.747 48.852C332.862 48.852 335.678 49.5987 338.195 51.092C340.755 52.5853 342.76 54.6973 344.211 57.428C345.662 60.116 346.387 63.252 346.387 66.836C346.387 70.3773 345.662 73.5347 344.211 76.308C342.76 79.0813 340.755 81.236 338.195 82.772C335.678 84.308 332.862 85.076 329.747 85.076C326.76 85.076 324.115 84.4147 321.811 83.092C319.55 81.7267 317.822 80.0413 316.627 78.036V101.14H310.803V49.428H316.627V55.892ZM340.435 66.836C340.435 64.1907 339.902 61.8867 338.835 59.924C337.768 57.9613 336.318 56.468 334.483 55.444C332.691 54.42 330.707 53.908 328.531 53.908C326.398 53.908 324.414 54.4413 322.579 55.508C320.787 56.532 319.336 58.0467 318.227 60.052C317.16 62.0147 316.627 64.2973 316.627 66.9C316.627 69.5453 317.16 71.8707 318.227 73.876C319.336 75.8387 320.787 77.3533 322.579 78.42C324.414 79.444 326.398 79.956 328.531 79.956C330.707 79.956 332.691 79.444 334.483 78.42C336.318 77.3533 337.768 75.8387 338.835 73.876C339.902 71.8707 340.435 69.524 340.435 66.836ZM386.053 65.62C386.053 66.7293 385.989 67.9027 385.861 69.14H357.829C358.042 72.596 359.216 75.3053 361.349 77.268C363.525 79.188 366.149 80.148 369.221 80.148C371.738 80.148 373.829 79.572 375.493 78.42C377.2 77.2253 378.394 75.6467 379.077 73.684H385.349C384.41 77.0547 382.533 79.8067 379.717 81.94C376.901 84.0307 373.402 85.076 369.221 85.076C365.893 85.076 362.906 84.3293 360.261 82.836C357.658 81.3427 355.61 79.2307 354.117 76.5C352.624 73.7267 351.877 70.5267 351.877 66.9C351.877 63.2733 352.602 60.0947 354.053 57.364C355.504 54.6333 357.53 52.5427 360.133 51.092C362.778 49.5987 365.808 48.852 369.221 48.852C372.549 48.852 375.493 49.5773 378.053 51.028C380.613 52.4787 382.576 54.484 383.941 57.044C385.349 59.5613 386.053 62.42 386.053 65.62ZM380.037 64.404C380.037 62.1853 379.546 60.2867 378.565 58.708C377.584 57.0867 376.24 55.8707 374.533 55.06C372.869 54.2067 371.013 53.78 368.965 53.78C366.021 53.78 363.504 54.7187 361.413 56.596C359.365 58.4733 358.192 61.076 357.893 64.404H380.037ZM399.565 55.124C400.589 53.1187 402.039 51.5613 403.917 50.452C405.837 49.3427 408.162 48.788 410.893 48.788V54.804H409.357C402.829 54.804 399.565 58.3453 399.565 65.428V84.5H393.741V49.428H399.565V55.124ZM424.72 54.228V74.9C424.72 76.6067 425.082 77.8227 425.808 78.548C426.533 79.2307 427.792 79.572 429.583 79.572H433.872V84.5H428.624C425.381 84.5 422.949 83.7533 421.328 82.26C419.706 80.7667 418.896 78.3133 418.896 74.9V54.228H414.352V49.428H418.896V40.596H424.72V49.428H433.872V54.228H424.72Z" fill="#3E0E3E"/>
<path d="M117 3H395H448V74V122.5C386 122.5 136.833 122.5 20 122.5" stroke="black" stroke-width="5"/>
<defs>
<linearGradient id="paint0_linear" x1="46" y1="10.5" x2="46" y2="102.5" gradientUnits="userSpaceOnUse">
<stop stop-color="#7922F2"/>
<stop offset="1" stop-color="#AB15BF" stop-opacity="0.93"/>
</linearGradient>
</defs>
</svg>
